<mxfile host="app.diagrams.net" modified="2023-10-08T23:53:51.981Z" agent="Mozilla/5.0 (Windows NT 10.0; Win64; x64; rv:109.0) Gecko/20100101 Firefox/118.0" etag="4ke3LOp16BymvkVxk_Mq" version="22.0.4" type="github">
  <diagram name="Page-1" id="b520641d-4fe3-3701-9064-5fc419738815">
    <mxGraphModel dx="1322" dy="646" grid="0" gridSize="10" guides="1" tooltips="1" connect="1" arrows="1" fold="1" page="1" pageScale="1" pageWidth="1100" pageHeight="850" background="none" math="0" shadow="0">
      <root>
        <mxCell id="0" />
        <mxCell id="1" parent="0" />
        <mxCell id="0R_SR0eQFJXIQPrwFnVm-15" style="edgeStyle=orthogonalEdgeStyle;rounded=0;orthogonalLoop=1;jettySize=auto;html=1;exitX=0.904;exitY=0.009;exitDx=0;exitDy=0;entryX=0;entryY=0.5;entryDx=0;entryDy=0;exitPerimeter=0;" edge="1" parent="1" source="21ea969265ad0168-22" target="0R_SR0eQFJXIQPrwFnVm-7">
          <mxGeometry relative="1" as="geometry" />
        </mxCell>
        <mxCell id="0R_SR0eQFJXIQPrwFnVm-35" value="Content Updates &lt;br&gt;&amp;amp; Modifications" style="edgeLabel;html=1;align=center;verticalAlign=middle;resizable=0;points=[];" vertex="1" connectable="0" parent="0R_SR0eQFJXIQPrwFnVm-15">
          <mxGeometry x="0.1654" relative="1" as="geometry">
            <mxPoint x="8" as="offset" />
          </mxGeometry>
        </mxCell>
        <mxCell id="0R_SR0eQFJXIQPrwFnVm-26" style="edgeStyle=orthogonalEdgeStyle;rounded=0;orthogonalLoop=1;jettySize=auto;html=1;exitX=0.25;exitY=1;exitDx=0;exitDy=0;entryX=1;entryY=0.5;entryDx=0;entryDy=0;" edge="1" parent="1" source="21ea969265ad0168-22" target="0R_SR0eQFJXIQPrwFnVm-4">
          <mxGeometry relative="1" as="geometry" />
        </mxCell>
        <mxCell id="0R_SR0eQFJXIQPrwFnVm-37" value="Order Updates &amp;amp; &lt;br&gt;Product Changes" style="edgeLabel;html=1;align=center;verticalAlign=middle;resizable=0;points=[];" vertex="1" connectable="0" parent="0R_SR0eQFJXIQPrwFnVm-26">
          <mxGeometry x="0.6796" relative="1" as="geometry">
            <mxPoint x="32" as="offset" />
          </mxGeometry>
        </mxCell>
        <mxCell id="0R_SR0eQFJXIQPrwFnVm-28" style="edgeStyle=orthogonalEdgeStyle;rounded=0;orthogonalLoop=1;jettySize=auto;html=1;exitX=1;exitY=0.75;exitDx=0;exitDy=0;entryX=0.5;entryY=0;entryDx=0;entryDy=0;" edge="1" parent="1" source="21ea969265ad0168-22" target="0R_SR0eQFJXIQPrwFnVm-8">
          <mxGeometry relative="1" as="geometry" />
        </mxCell>
        <mxCell id="0R_SR0eQFJXIQPrwFnVm-39" value="&lt;div&gt;Design Feedback&amp;nbsp;&lt;/div&gt;&lt;div&gt;&amp;amp; Customisations&lt;/div&gt;" style="edgeLabel;html=1;align=center;verticalAlign=middle;resizable=0;points=[];" vertex="1" connectable="0" parent="0R_SR0eQFJXIQPrwFnVm-28">
          <mxGeometry x="-0.5357" y="-1" relative="1" as="geometry">
            <mxPoint x="36" y="43" as="offset" />
          </mxGeometry>
        </mxCell>
        <mxCell id="21ea969265ad0168-22" value="" style="swimlane;html=1;fontStyle=0;childLayout=stackLayout;horizontal=1;startSize=26;fillColor=#e0e0e0;horizontalStack=0;resizeParent=1;resizeLast=0;collapsible=1;marginBottom=0;swimlaneFillColor=#ffffff;align=center;rounded=1;shadow=0;comic=0;labelBackgroundColor=none;strokeWidth=1;fontFamily=Verdana;fontSize=12" parent="1" vertex="1">
          <mxGeometry x="460" y="383" width="200" height="84" as="geometry" />
        </mxCell>
        <mxCell id="0R_SR0eQFJXIQPrwFnVm-3" value="Alan&#39;s Electronics Online Store" style="text;html=1;align=center;verticalAlign=middle;resizable=0;points=[];autosize=1;strokeColor=none;fillColor=none;" vertex="1" parent="21ea969265ad0168-22">
          <mxGeometry y="26" width="200" height="30" as="geometry" />
        </mxCell>
        <mxCell id="0R_SR0eQFJXIQPrwFnVm-27" style="edgeStyle=orthogonalEdgeStyle;rounded=0;orthogonalLoop=1;jettySize=auto;html=1;exitX=0.5;exitY=0;exitDx=0;exitDy=0;entryX=0;entryY=0.75;entryDx=0;entryDy=0;" edge="1" parent="1" source="0R_SR0eQFJXIQPrwFnVm-4" target="21ea969265ad0168-22">
          <mxGeometry relative="1" as="geometry" />
        </mxCell>
        <mxCell id="0R_SR0eQFJXIQPrwFnVm-36" value="Product Data &amp;amp; &lt;br&gt;Transaction Info" style="edgeLabel;html=1;align=center;verticalAlign=middle;resizable=0;points=[];" vertex="1" connectable="0" parent="0R_SR0eQFJXIQPrwFnVm-27">
          <mxGeometry x="-0.4722" y="2" relative="1" as="geometry">
            <mxPoint x="2" y="18" as="offset" />
          </mxGeometry>
        </mxCell>
        <mxCell id="0R_SR0eQFJXIQPrwFnVm-4" value="WooCommerce" style="whiteSpace=wrap;html=1;aspect=fixed;" vertex="1" parent="1">
          <mxGeometry x="340" y="520" width="100" height="100" as="geometry" />
        </mxCell>
        <mxCell id="0R_SR0eQFJXIQPrwFnVm-5" value="User/Browser" style="whiteSpace=wrap;html=1;aspect=fixed;" vertex="1" parent="1">
          <mxGeometry x="290" y="260" width="100" height="100" as="geometry" />
        </mxCell>
        <mxCell id="0R_SR0eQFJXIQPrwFnVm-6" value="Crazy Domains" style="whiteSpace=wrap;html=1;aspect=fixed;" vertex="1" parent="1">
          <mxGeometry x="510" y="140" width="100" height="100" as="geometry" />
        </mxCell>
        <mxCell id="0R_SR0eQFJXIQPrwFnVm-7" value="Wordpress" style="whiteSpace=wrap;html=1;aspect=fixed;" vertex="1" parent="1">
          <mxGeometry x="730" y="260" width="100" height="100" as="geometry" />
        </mxCell>
        <mxCell id="0R_SR0eQFJXIQPrwFnVm-29" style="edgeStyle=orthogonalEdgeStyle;rounded=0;orthogonalLoop=1;jettySize=auto;html=1;exitX=0;exitY=0.5;exitDx=0;exitDy=0;entryX=0.75;entryY=1;entryDx=0;entryDy=0;" edge="1" parent="1" source="0R_SR0eQFJXIQPrwFnVm-8" target="21ea969265ad0168-22">
          <mxGeometry relative="1" as="geometry" />
        </mxCell>
        <mxCell id="0R_SR0eQFJXIQPrwFnVm-38" value="Design Templates &lt;br&gt;&amp;amp; Layouts" style="edgeLabel;html=1;align=center;verticalAlign=middle;resizable=0;points=[];" vertex="1" connectable="0" parent="0R_SR0eQFJXIQPrwFnVm-29">
          <mxGeometry x="-0.5805" y="-1" relative="1" as="geometry">
            <mxPoint x="-13" y="1" as="offset" />
          </mxGeometry>
        </mxCell>
        <mxCell id="0R_SR0eQFJXIQPrwFnVm-8" value="Elementor" style="whiteSpace=wrap;html=1;aspect=fixed;" vertex="1" parent="1">
          <mxGeometry x="680" y="520" width="100" height="100" as="geometry" />
        </mxCell>
        <mxCell id="0R_SR0eQFJXIQPrwFnVm-9" style="edgeStyle=orthogonalEdgeStyle;rounded=0;orthogonalLoop=1;jettySize=auto;html=1;entryX=0.434;entryY=1.043;entryDx=0;entryDy=0;entryPerimeter=0;" edge="1" parent="1" source="0R_SR0eQFJXIQPrwFnVm-3" target="0R_SR0eQFJXIQPrwFnVm-5">
          <mxGeometry relative="1" as="geometry" />
        </mxCell>
        <mxCell id="0R_SR0eQFJXIQPrwFnVm-31" value="Website Content" style="edgeLabel;html=1;align=center;verticalAlign=middle;resizable=0;points=[];" vertex="1" connectable="0" parent="0R_SR0eQFJXIQPrwFnVm-9">
          <mxGeometry x="0.2608" y="-1" relative="1" as="geometry">
            <mxPoint x="-13" y="-33" as="offset" />
          </mxGeometry>
        </mxCell>
        <mxCell id="0R_SR0eQFJXIQPrwFnVm-10" style="edgeStyle=orthogonalEdgeStyle;rounded=0;orthogonalLoop=1;jettySize=auto;html=1;entryX=0.11;entryY=-0.012;entryDx=0;entryDy=0;entryPerimeter=0;" edge="1" parent="1" source="0R_SR0eQFJXIQPrwFnVm-5" target="21ea969265ad0168-22">
          <mxGeometry relative="1" as="geometry" />
        </mxCell>
        <mxCell id="0R_SR0eQFJXIQPrwFnVm-30" value="Website Request" style="edgeLabel;html=1;align=center;verticalAlign=middle;resizable=0;points=[];" vertex="1" connectable="0" parent="0R_SR0eQFJXIQPrwFnVm-10">
          <mxGeometry x="-0.2613" y="1" relative="1" as="geometry">
            <mxPoint x="-11" y="1" as="offset" />
          </mxGeometry>
        </mxCell>
        <mxCell id="0R_SR0eQFJXIQPrwFnVm-13" style="edgeStyle=orthogonalEdgeStyle;rounded=0;orthogonalLoop=1;jettySize=auto;html=1;entryX=0.25;entryY=1;entryDx=0;entryDy=0;" edge="1" parent="1" target="0R_SR0eQFJXIQPrwFnVm-6">
          <mxGeometry relative="1" as="geometry">
            <mxPoint x="535" y="380" as="sourcePoint" />
          </mxGeometry>
        </mxCell>
        <mxCell id="0R_SR0eQFJXIQPrwFnVm-33" value="Website &lt;br&gt;Content" style="edgeLabel;html=1;align=center;verticalAlign=middle;resizable=0;points=[];" vertex="1" connectable="0" parent="0R_SR0eQFJXIQPrwFnVm-13">
          <mxGeometry x="0.3775" relative="1" as="geometry">
            <mxPoint x="-15" y="-14" as="offset" />
          </mxGeometry>
        </mxCell>
        <mxCell id="0R_SR0eQFJXIQPrwFnVm-14" style="edgeStyle=orthogonalEdgeStyle;rounded=0;orthogonalLoop=1;jettySize=auto;html=1;exitX=0.75;exitY=1;exitDx=0;exitDy=0;entryX=0.624;entryY=0.015;entryDx=0;entryDy=0;entryPerimeter=0;" edge="1" parent="1" source="0R_SR0eQFJXIQPrwFnVm-6" target="21ea969265ad0168-22">
          <mxGeometry relative="1" as="geometry" />
        </mxCell>
        <mxCell id="0R_SR0eQFJXIQPrwFnVm-32" value="Hosting &amp;amp; &lt;br&gt;Infrastructure &lt;br&gt;Services" style="edgeLabel;html=1;align=center;verticalAlign=middle;resizable=0;points=[];" vertex="1" connectable="0" parent="0R_SR0eQFJXIQPrwFnVm-14">
          <mxGeometry x="-0.3079" relative="1" as="geometry">
            <mxPoint x="15" y="-21" as="offset" />
          </mxGeometry>
        </mxCell>
        <mxCell id="0R_SR0eQFJXIQPrwFnVm-17" style="edgeStyle=orthogonalEdgeStyle;rounded=0;orthogonalLoop=1;jettySize=auto;html=1;entryX=1.007;entryY=0.586;entryDx=0;entryDy=0;entryPerimeter=0;exitX=0.5;exitY=1;exitDx=0;exitDy=0;" edge="1" parent="1" source="0R_SR0eQFJXIQPrwFnVm-7" target="0R_SR0eQFJXIQPrwFnVm-3">
          <mxGeometry relative="1" as="geometry">
            <mxPoint x="789.2" y="380" as="sourcePoint" />
            <mxPoint x="720" y="491.41999999999985" as="targetPoint" />
            <Array as="points">
              <mxPoint x="780" y="427" />
              <mxPoint x="670" y="427" />
            </Array>
          </mxGeometry>
        </mxCell>
        <mxCell id="0R_SR0eQFJXIQPrwFnVm-34" value="Content Delivery" style="edgeLabel;html=1;align=center;verticalAlign=middle;resizable=0;points=[];" vertex="1" connectable="0" parent="0R_SR0eQFJXIQPrwFnVm-17">
          <mxGeometry x="-0.646" y="-1" relative="1" as="geometry">
            <mxPoint x="1" y="-13" as="offset" />
          </mxGeometry>
        </mxCell>
      </root>
    </mxGraphModel>
  </diagram>
</mxfile>
